<svg width="16" height="16" viewBox="0 0 16 16" fill="none" xmlns="http://www.w3.org/2000/svg">
<g clip-path="url(#clip0_8_36)">
<path d="M11.4721 0.649817L12.2235 1.40127C12.3238 1.5014 12.3738 1.61674 12.3738 1.74714C12.3738 1.87723 12.3238 1.99252 12.2235 2.09265L6.31659 7.99986L12.2233 13.9068C12.3237 14.007 12.3737 14.1223 12.3737 14.2525C12.3737 14.3828 12.3237 14.4981 12.2233 14.5982L11.4719 15.3496C11.3717 15.4499 11.2565 15.4999 11.1262 15.4999C10.996 15.4999 10.8807 15.4498 10.7805 15.3496L3.77638 8.34558C3.6762 8.24545 3.62614 8.1301 3.62614 7.99986C3.62614 7.86962 3.6762 7.75448 3.77638 7.6544L10.7805 0.649817C10.8807 0.549687 10.996 0.499939 11.1262 0.499939C11.2565 0.499939 11.3717 0.549687 11.4721 0.649817Z" fill="white"/>
</g>
<defs>
<clipPath id="clip0_8_36">
<rect width="15" height="15" fill="white" transform="matrix(4.37114e-08 -1 -1 -4.37114e-08 15.5 15.4999)"/>
</clipPath>
</defs>
</svg>
